# xmcd
#
# Track frame offsets:
#	150
#	15882
#	30553
#	45512
#	67292
#	83460
#	99611
#	120150
#	134155
#	155697
#	177362
#	197200
#	213919
#	235194
#	250763
#	263303
#	283039
#	302532
#	317065
#	329759
#
# Disc length: 4674 seconds
#
# Revision: 6
# Processed by: cddbd v1.5.2PL0 Copyright (c) Steve Scherf et al.
# Submitted via: audiograbber 1.83.01
#
DISCID=10124014
DTITLE=Nits - Dreams - Best [Zounds]
DYEAR=2004
DGENRE=Pop
TTITLE0=In The Dutch Mountains [album version]
TTITLE1=J.O.S. Days [album version]
TTITLE2=Bike In Head [elephant mix]
TTITLE3=Adieu, Sweet Bahnhof [album version]
TTITLE4=Bild Am Sonntag (As Usual) [album version]
TTITLE5=Da Da Da [single version]
TTITLE6=Dreams [album version]
TTITLE7=Home Before Dark [album version]
TTITLE8=The Changing Room [album version]
TTITLE9=Nescio [album version]
TTITLE10=Sketches Of Spain [album version]
TTITLE11=Memories Are New III [album version]
TTITLE12=Mourir avant quinze ans [single version]
TTITLE13=Soap Bubble Box [album version]
TTITLE14=The Bauhaus Chair [album version]
TTITLE15=The Dream [album version]
TTITLE16=Three Sisters [album version]
TTITLE17=What We Did On Our Holidays [album version]
TTITLE18=The Train [live edit]
TTITLE19=Cars And Cars (Room No. 9) [symphonic version]
EXTD=
EXTT0=
EXTT1=
EXTT2=
EXTT3=
EXTT4=
EXTT5=
EXTT6=
EXTT7=
EXTT8=
EXTT9=
EXTT10=
EXTT11=
EXTT12=
EXTT13=
EXTT14=
EXTT15=
EXTT16=
EXTT17=
EXTT18=
EXTT19=
PLAYORDER=
